<svg width="252" height="31" viewBox="0 0 252 31" fill="none" xmlns="http://www.w3.org/2000/svg">
<g clip-path="url(#clip0_5610_9)">
<path fill-rule="evenodd" clip-rule="evenodd" d="M36.8315 0.761719H27.473V7.74055H36.8315V0.761719ZM27.473 7.74055L27.4721 19.0465C27.4721 25.2904 32.9461 30.3522 39.6985 30.3522C46.451 30.3522 51.9249 25.2904 51.9249 19.0465C51.9249 12.8025 46.451 7.74074 39.6985 7.74074L27.473 7.74055ZM35.6251 19.1873C35.705 21.3577 37.6331 23.0947 39.9999 23.0947C42.4174 23.0947 44.3773 21.2825 44.3773 19.047C44.3773 16.8582 42.4985 15.0751 40.1507 15.0016V7.74139H36.8299V16.1166H27.4717V19.1873H35.6251Z" fill="#E6EAF2"/>
<path fill-rule="evenodd" clip-rule="evenodd" d="M24.4528 27.2818V15.9761C24.4528 15.9465 24.4527 15.917 24.4525 15.8874V15.8361C24.3715 9.65662 18.9283 4.67041 12.2264 4.67041C5.47396 4.67041 0 9.73214 0 15.9761C0 22.1733 5.39228 27.206 12.0749 27.281L15.3957 27.2819L24.4528 27.2818ZM15.3957 27.2819V18.7683L15.3959 18.9068H24.4525V15.8874C24.4524 15.8702 24.4528 15.8532 24.4525 15.8361H16.6013C16.5215 13.6654 14.5933 11.9285 12.2265 11.9285C9.80896 11.9285 7.84915 13.7407 7.84915 15.9761C7.84915 18.1648 9.72757 19.9476 12.0749 20.0215V27.281C12.1254 27.2816 12.1759 27.2818 12.2264 27.2818L15.3957 27.2819Z" fill="#E6EAF2"/>
</g>
<path d="M73.446 20.5502L73.2926 26.3286H69.9943V23.2349H69.0739V20.5502H73.446ZM59.8438 23.2349V10.144H63.2699V20.4991H67.8466V10.144H71.3239V23.2349H59.8438ZM75.5445 10.144H79.0985V16.9962H79.2008L83.8542 10.144H86.8712V23.2349H83.3173V16.357H83.2406L78.5104 23.2349H75.5445V10.144ZM95.0773 11.4479H98.5802C99.6796 11.4479 100.653 11.6717 101.501 12.1191C102.354 12.5665 103.021 13.2015 103.502 14.0239C103.988 14.8464 104.231 15.8201 104.231 16.9451C104.231 18.0104 103.988 18.933 103.502 19.7128C103.021 20.4927 102.354 21.0957 101.501 21.5218C100.653 21.9479 99.6796 22.161 98.5802 22.161H95.0773C93.9694 22.161 92.9871 21.9501 92.1306 21.5282C91.2783 21.1063 90.6093 20.5033 90.1235 19.7192C89.642 18.9351 89.4012 18.0019 89.4012 16.9195C89.4012 15.7945 89.6462 14.8229 90.1363 14.0047C90.6306 13.1866 91.3039 12.5559 92.1562 12.1127C93.0127 11.6695 93.9864 11.4479 95.0773 11.4479ZM95.0773 14.3627C94.6342 14.3627 94.2251 14.4458 93.8501 14.612C93.4793 14.7782 93.181 15.0488 92.9552 15.4238C92.7336 15.7988 92.6228 16.2974 92.6228 16.9195C92.6228 17.4905 92.7379 17.9465 92.968 18.2874C93.2023 18.6283 93.5049 18.8734 93.8756 19.0225C94.2506 19.1717 94.6512 19.2462 95.0773 19.2462H98.6058C99.0404 19.2462 99.4367 19.1695 99.7947 19.0161C100.157 18.8584 100.445 18.6113 100.658 18.2746C100.875 17.9337 100.984 17.4905 100.984 16.9451C100.984 16.3229 100.875 15.8222 100.658 15.443C100.445 15.0637 100.157 14.7888 99.7947 14.6184C99.4367 14.4479 99.0404 14.3627 98.6058 14.3627H95.0773ZM98.4779 9.91384V23.7718H95.154V9.91384H98.4779ZM106.77 23.2349V10.144H112.421C113.392 10.144 114.243 10.3357 114.971 10.7192C115.7 11.1028 116.267 11.6418 116.672 12.3364C117.076 13.031 117.279 13.8428 117.279 14.7718C117.279 15.7093 117.07 16.5211 116.652 17.2072C116.239 17.8932 115.657 18.4217 114.907 18.7924C114.162 19.1631 113.29 19.3485 112.293 19.3485H108.918V16.5871H111.577C111.995 16.5871 112.351 16.5147 112.645 16.3698C112.943 16.2207 113.171 16.0097 113.329 15.737C113.49 15.4643 113.571 15.1425 113.571 14.7718C113.571 14.3968 113.49 14.0772 113.329 13.813C113.171 13.5445 112.943 13.34 112.645 13.1994C112.351 13.0545 111.995 12.982 111.577 12.982H110.324V23.2349H106.77ZM132.165 16.6894C132.165 18.1468 131.881 19.3762 131.314 20.3776C130.748 21.3748 129.983 22.1312 129.02 22.6468C128.057 23.1582 126.983 23.4138 125.798 23.4138C124.605 23.4138 123.527 23.156 122.564 22.6404C121.605 22.1205 120.842 21.362 120.275 20.3648C119.713 19.3634 119.432 18.1383 119.432 16.6894C119.432 15.232 119.713 14.0047 120.275 13.0076C120.842 12.0062 121.605 11.2498 122.564 10.7384C123.527 10.2228 124.605 9.96498 125.798 9.96498C126.983 9.96498 128.057 10.2228 129.02 10.7384C129.983 11.2498 130.748 12.0062 131.314 13.0076C131.881 14.0047 132.165 15.232 132.165 16.6894ZM128.508 16.6894C128.508 15.9053 128.404 15.2448 128.195 14.7079C127.991 14.1667 127.686 13.7576 127.281 13.4806C126.881 13.1994 126.386 13.0587 125.798 13.0587C125.21 13.0587 124.714 13.1994 124.309 13.4806C123.908 13.7576 123.604 14.1667 123.395 14.7079C123.19 15.2448 123.088 15.9053 123.088 16.6894C123.088 17.4735 123.19 18.1361 123.395 18.6773C123.604 19.2143 123.908 19.6234 124.309 19.9046C124.714 20.1816 125.21 20.3201 125.798 20.3201C126.386 20.3201 126.881 20.1816 127.281 19.9046C127.686 19.6234 127.991 19.2143 128.195 18.6773C128.404 18.1361 128.508 17.4735 128.508 16.6894ZM134.709 23.2349V10.144H140.385C141.382 10.144 142.22 10.2782 142.897 10.5467C143.579 10.8151 144.093 11.1944 144.438 11.6844C144.787 12.1745 144.962 12.7519 144.962 13.4167C144.962 13.8982 144.855 14.3371 144.642 14.7334C144.433 15.1297 144.139 15.4621 143.76 15.7306C143.381 15.9948 142.938 16.178 142.431 16.2803V16.4082C142.993 16.4295 143.504 16.5722 143.965 16.8364C144.425 17.0964 144.791 17.4565 145.064 17.9167C145.337 18.3726 145.473 18.9096 145.473 19.5275C145.473 20.2434 145.286 20.8805 144.911 21.4387C144.54 21.9969 144.012 22.4359 143.325 22.7555C142.639 23.0751 141.821 23.2349 140.871 23.2349H134.709ZM138.263 20.3968H139.925C140.521 20.3968 140.969 20.286 141.267 20.0644C141.566 19.8386 141.715 19.5062 141.715 19.0672C141.715 18.7604 141.644 18.5005 141.504 18.2874C141.363 18.0744 141.163 17.9124 140.903 17.8016C140.647 17.6908 140.338 17.6354 139.976 17.6354H138.263V20.3968ZM138.263 15.4366H139.72C140.031 15.4366 140.306 15.3876 140.545 15.2896C140.784 15.1915 140.969 15.0509 141.101 14.8677C141.237 14.6802 141.306 14.4522 141.306 14.1837C141.306 13.7789 141.161 13.4699 140.871 13.2569C140.581 13.0396 140.215 12.9309 139.771 12.9309H138.263V15.4366ZM147.632 10.144H151.186V16.9962H151.289L155.942 10.144H158.959V23.2349H155.405V16.357H155.328L150.598 23.2349H147.632V10.144ZM166.679 23.4138C165.648 23.4138 164.732 23.237 163.931 22.8833C163.134 22.5253 162.508 22.0332 162.052 21.4067C161.596 20.7803 161.366 20.0601 161.361 19.2462H164.941C164.945 19.4976 165.022 19.7235 165.171 19.9238C165.324 20.1198 165.533 20.2732 165.797 20.384C166.062 20.4948 166.364 20.5502 166.705 20.5502C167.033 20.5502 167.323 20.4927 167.574 20.3776C167.826 20.2583 168.022 20.0942 168.162 19.8854C168.303 19.6766 168.371 19.438 168.367 19.1695C168.371 18.9053 168.29 18.6709 168.124 18.4664C167.962 18.2619 167.734 18.1021 167.44 17.987C167.146 17.8719 166.807 17.8144 166.424 17.8144H165.094V15.3599H166.424C166.777 15.3599 167.089 15.3023 167.357 15.1873C167.63 15.0722 167.841 14.9124 167.99 14.7079C168.143 14.5033 168.218 14.269 168.214 14.0047C168.218 13.7491 168.156 13.5232 168.028 13.3272C167.9 13.1312 167.721 12.9778 167.491 12.867C167.265 12.7562 167.003 12.7008 166.705 12.7008C166.381 12.7008 166.091 12.7583 165.836 12.8734C165.584 12.9884 165.386 13.1482 165.241 13.3528C165.096 13.5573 165.022 13.7917 165.018 14.0559H161.617C161.621 13.2547 161.841 12.5474 162.275 11.9337C162.714 11.3201 163.315 10.8386 164.078 10.4891C164.841 10.1397 165.716 9.96498 166.705 9.96498C167.672 9.96498 168.527 10.129 169.268 10.4572C170.014 10.7853 170.596 11.237 171.013 11.8123C171.435 12.3833 171.644 13.0374 171.64 13.7746C171.648 14.5076 171.397 15.1084 170.885 15.5772C170.378 16.0459 169.735 16.3229 168.955 16.4082V16.5104C170.012 16.6255 170.807 16.9494 171.339 17.482C171.872 18.0104 172.134 18.6752 172.125 19.4763C172.13 20.2434 171.9 20.9231 171.435 21.5154C170.975 22.1077 170.334 22.5722 169.511 22.9089C168.693 23.2455 167.749 23.4138 166.679 23.4138ZM177.987 23.2349H174.152L178.473 10.144H183.331L187.652 23.2349H183.817L180.953 13.7491H180.851L177.987 23.2349ZM177.271 18.0701H184.482V20.7292H177.271V18.0701ZM203.415 20.5502L203.262 26.3286H199.963V23.2349H199.043V20.5502H203.415ZM189.813 23.2349V10.144H193.239V20.4991H197.816V10.144H201.293V23.2349H189.813ZM205.514 10.144H209.068V16.9962H209.17L213.823 10.144H216.84V23.2349H213.286V16.357H213.21L208.48 23.2349H205.514V10.144ZM230.237 23.2349H226.683V12.982H225.43C225.017 12.982 224.661 13.0396 224.363 13.1546C224.064 13.2654 223.834 13.4401 223.672 13.6788C223.515 13.9131 223.436 14.2178 223.436 14.5928C223.436 14.9636 223.515 15.264 223.672 15.4941C223.834 15.7242 224.064 15.8925 224.363 15.9991C224.661 16.1013 225.017 16.1525 225.43 16.1525H228.089V18.9138H224.714C223.721 18.9138 222.85 18.7498 222.1 18.4217C221.35 18.0935 220.766 17.6077 220.348 16.9643C219.935 16.3208 219.728 15.5303 219.728 14.5928C219.728 13.6638 219.931 12.867 220.336 12.2022C220.74 11.5374 221.307 11.0282 222.036 10.6745C222.769 10.3208 223.619 10.144 224.586 10.144H230.237V23.2349ZM222.566 17.2263H226.35L223.154 23.2349H219.294L222.566 17.2263Z" fill="white"/>
<defs>
<clipPath id="clip0_5610_9">
<rect width="52" height="29.5902" fill="white" transform="translate(0 0.761719)"/>
</clipPath>
</defs>
</svg>
